<?xml version="1.0" encoding="UTF-8"?>
<svg id="Layer_2" data-name="Layer 2" xmlns="http://www.w3.org/2000/svg" xmlns:xlink="http://www.w3.org/1999/xlink" viewBox="0 0 919.87 175.9">
  <defs>
    <style>
      .cls-1 {
        fill: none;
      }

      .cls-2 {
        fill: url(#linear-gradient);
      }

      .cls-3 {
        clip-path: url(#clippath);
      }

      .cls-4 {
        fill: #161616;
      }
    </style>
    <clipPath id="clippath">
      <rect class="cls-1" y=".07" width="175.76" height="175.76" rx="28.46" ry="28.46"/>
    </clipPath>
    <linearGradient id="linear-gradient" x1="-153.39" y1="130.57" x2="166.77" y2="130.57" gradientUnits="userSpaceOnUse">
      <stop offset="0" stop-color="#ffd900" stop-opacity="0"/>
      <stop offset="1" stop-color="#ffd900" stop-opacity=".9"/>
    </linearGradient>
  </defs>
  <g id="Layer_3" data-name="Layer 3">
    <g>
      <path class="cls-4" d="M240.81,175.17c-1.25.84-2.24-.16-2.24-1.4l1.25-84.93-1.25-86.6c0-1.25,1-2.24,2.24-2.24h34.12c1.25,0,2.24,1,2.24,2.24l-1,84.36,1,61.27h101.7c1.25,0,2.24,1,2.24,2.24v23.66c0,1.24-1,2.24-2.24,1.4h-138.06Z"/>
      <path class="cls-4" d="M376.2,175.65c-27.15,0-44.83-18.43-44.83-49.81v-26.9l-.5-52.3c0-1.25,1-2.24,2.24-2.24h33.37c1.25,0,2.24,1,2.24,2.24l-.75,52.3v26.4c0,13.95,8.47,22.91,19.68,22.91,13.45,0,27.89-12.45,27.89-39.85v-9.46l-.5-52.3c0-1.25,1-2.24,2.24-2.24h33.87c1.25,0,2.24,1,2.24,2.24l-.75,59.27.25,64.5c0,1.24-1,2.24-2.24,2.24h-31.63c-1.25,0-2.24-1-2.24-2.24l.75-13.95c-8.72,11.21-23.41,19.18-41.34,19.18Z"/>
      <path class="cls-4" d="M502.71,126.59l.75,43.83c0,1.24-1,2.24-2.24,2.24h-34.12c-1.25,0-2.24-1-2.24-2.24l.75-43.83-.25-79.95c0-1.25,1-2.24,2.24-2.24h31.88c1.25,0,2.24,1,2.24,2.24l-.75,13.95c8.97-12.45,20.42-19.18,36.86-19.18,17.93,0,30.63,7.72,36.61,24.16,10.96-19.43,23.91-24.16,39.1-24.16,25.9,0,40.84,15.69,40.84,49.81v35.37l.5,43.83c0,1.24-1,2.24-2.24,2.24h-33.62c-1.24,0-2.24-1-2.24-2.24l.75-43.83v-34.87c0-15.44-6.23-22.91-16.44-22.91s-22.66,13.7-22.66,39.85v17.93l.75,43.83c0,1.24-1,2.24-2.24,2.24h-33.62c-1.25,0-2.24-1-2.24-2.24l.75-43.83v-34.87c0-15.44-5.98-22.91-16.44-22.91s-22.66,13.7-22.66,39.85v17.93Z"/>
      <path class="cls-4" d="M728.35,175.9c-41.84,0-66-26.15-66-67s24.16-67.74,66-67.74,65.5,26.15,65.5,67-23.66,67.74-65.5,67.74ZM728.35,150.99c18.43,0,27.15-12.7,27.15-42.09s-8.97-42.84-27.4-42.84c-18.93.25-27.64,14.2-27.64,43.09s9.21,41.84,27.89,41.84Z"/>
      <path class="cls-4" d="M859.85,175.65c-37.36,0-61.27-15.19-62.51-43.83,0-1.24,1-2.24,2.24-2.24h31.88c1.25,0,2.24,1,2.24,2.24,1,14.45,10.46,20.67,27.89,20.67,14.69,0,22.66-5.73,22.66-15.69,0-24.41-83.93-.75-83.93-54.54,0-26.65,21.42-40.84,56.04-40.84s56.29,13.45,58.53,40.35c.25,1.25-.75,2.24-1.99,2.24h-30.38c-1.24,0-2.24-1-2.49-2.24-1.99-10.96-8.97-17.68-24.16-17.68-12.2,0-19.93,4.48-19.93,15.44,0,24.41,83.93-.5,83.93,54.04,0,26.9-25.4,42.09-60.02,42.09Z"/>
      <g>
        <rect class="cls-4" y=".07" width="175.76" height="175.76" rx="28.46" ry="28.46"/>
        <g class="cls-3">
          <path class="cls-2" d="M166.77,6.27l-36.48,205.19c-5.09,28.6-32.4,47.67-61,42.58l-222.68-39.59"/>
        </g>
      </g>
    </g>
  </g>
</svg>